<?xml version="1.0" encoding="utf-8"?>
<!-- Generator: Adobe Illustrator 19.0.0, SVG Export Plug-In . SVG Version: 6.00 Build 0)  -->
<svg version="1.1" id="Ebene_1" xmlns="http://www.w3.org/2000/svg" xmlns:xlink="http://www.w3.org/1999/xlink" x="0px" y="0px"
	 viewBox="0 0 800 600" style="enable-background:new 0 0 800 600;" xml:space="preserve">
<style type="text/css">
	.st0{fill:#2E3192;}
</style>
<g id="XMLID_4068_">
	<path id="XMLID_4069_" class="st0" d="M131.7,337.9c-4.7,0-9-0.9-12.9-2.6c-3.9-1.7-7.3-4.2-10.2-7.3c-2.9-3.1-5.1-6.8-6.7-11.1
		c-1.6-4.3-2.4-9-2.4-14.1v-2.9c0-5.5,0.8-10.5,2.5-15c1.7-4.5,3.9-8.3,6.7-11.5c2.8-3.2,6.1-5.6,9.8-7.3c3.7-1.7,7.6-2.6,11.7-2.6
		c4.6,0,8.6,0.8,12.2,2.5c3.5,1.6,6.5,3.9,8.9,6.8c2.4,2.9,4.2,6.4,5.5,10.4c1.2,4,1.9,8.4,1.9,13.2v4.8h-51.3v1.5
		c0,3.9,0.6,7.6,1.8,11.1c1.2,3.5,2.9,6.5,5,9.1c2.2,2.6,4.8,4.6,7.8,6.1c3,1.5,6.4,2.2,10,2.2c4.3,0,8-0.8,11.3-2.3
		c3.3-1.5,6.2-4,8.9-7.4l5,3.8c-1.2,1.7-2.6,3.4-4.2,4.9c-1.6,1.5-3.4,2.9-5.5,4.1c-2.1,1.2-4.4,2.1-7,2.7
		C137.8,337.6,134.9,337.9,131.7,337.9z M130.2,270.2c-3,0-5.8,0.6-8.4,1.7c-2.6,1.2-4.8,2.8-6.8,4.9c-2,2.1-3.6,4.7-4.8,7.7
		s-2.1,6.3-2.6,9.9h43.1v-0.9c-0.1-3-0.6-5.9-1.5-8.7c-0.9-2.8-2.2-5.3-3.9-7.5c-1.7-2.2-3.8-3.9-6.3-5.2
		C136.5,270.8,133.6,270.2,130.2,270.2z"/>
	<path id="XMLID_4072_" class="st0" d="M216.7,336.6c-0.4-1.2-0.8-2.8-1-4.5c-0.2-1.8-0.4-3.6-0.5-5.5c-1.2,1.5-2.6,3-4.3,4.4
		c-1.6,1.4-3.5,2.6-5.5,3.6c-2,1-4.3,1.8-6.7,2.5c-2.4,0.6-5.1,0.9-7.9,0.9c-3.5,0-6.7-0.5-9.5-1.5c-2.9-1-5.3-2.4-7.3-4.3
		c-2-1.8-3.6-4-4.7-6.5c-1.1-2.5-1.7-5.2-1.7-8.1c0-3.5,0.8-6.7,2.3-9.5c1.5-2.8,3.7-5.2,6.5-7.2c2.8-2,6.3-3.5,10.3-4.5
		c4.1-1,8.6-1.6,13.6-1.6h14.7v-8.2c0-5.1-1.6-9.2-4.7-12.1c-3.2-2.9-7.8-4.4-13.8-4.4c-2.8,0-5.4,0.4-7.7,1.1
		c-2.3,0.8-4.4,1.8-6.1,3.1c-1.7,1.3-3,2.9-4,4.6c-1,1.7-1.4,3.6-1.4,5.6l-8-0.1c0-2.7,0.7-5.3,2-7.8s3.2-4.8,5.6-6.7
		c2.4-2,5.3-3.6,8.7-4.7c3.4-1.2,7.1-1.8,11.3-1.8c3.8,0,7.3,0.5,10.5,1.5c3.2,1,6,2.4,8.3,4.4c2.3,1.9,4.1,4.4,5.4,7.3
		c1.3,2.9,1.9,6.3,1.9,10.2v34.8c0,1.2,0,2.5,0.1,3.9c0.1,1.3,0.2,2.6,0.4,3.9c0.2,1.2,0.4,2.4,0.7,3.6c0.3,1.1,0.6,2.1,0.9,3v0.8
		H216.7z M191.7,330.9c2.9,0,5.5-0.4,8-1.1s4.7-1.7,6.7-3c2-1.3,3.7-2.8,5.2-4.5c1.5-1.7,2.6-3.6,3.5-5.5v-15.8h-13.6
		c-4.1,0-7.7,0.4-10.9,1.1c-3.2,0.7-5.9,1.8-8.1,3.2c-2.2,1.4-3.9,3-5.1,5c-1.2,2-1.8,4.2-1.8,6.7c0,1.9,0.4,3.8,1.1,5.5
		c0.8,1.7,1.8,3.2,3.2,4.4c1.4,1.3,3.1,2.3,5.1,3C187,330.5,189.2,330.9,191.7,330.9z"/>
	<path id="XMLID_4300_" class="st0" d="M283.1,318.3c0-1.5-0.3-2.9-0.8-4.4c-0.5-1.5-1.5-2.8-2.9-4.2c-1.4-1.3-3.3-2.5-5.8-3.7
		c-2.5-1.1-5.7-2.1-9.7-3c-4-0.8-7.5-1.8-10.7-2.9c-3.1-1.1-5.8-2.4-7.9-4c-2.1-1.6-3.8-3.4-4.9-5.6c-1.1-2.2-1.7-4.7-1.7-7.6
		c0-2.7,0.6-5.2,1.8-7.6c1.2-2.4,2.9-4.5,5-6.2c2.2-1.8,4.8-3.2,8-4.2c3.1-1,6.6-1.6,10.5-1.6c4.2,0,7.9,0.5,11.2,1.6
		c3.3,1.1,6.1,2.6,8.4,4.5c2.3,1.9,4,4.2,5.2,6.8c1.2,2.6,1.8,5.4,1.8,8.5h-8c0-1.9-0.4-3.7-1.2-5.4c-0.8-1.8-2-3.3-3.6-4.7
		c-1.6-1.3-3.5-2.4-5.8-3.3c-2.3-0.8-5-1.3-7.9-1.3c-3.1,0-5.7,0.4-7.9,1.1c-2.2,0.8-4,1.7-5.4,2.9c-1.4,1.2-2.4,2.5-3.1,4
		c-0.6,1.5-1,3-1,4.5c0,1.6,0.2,3,0.7,4.3c0.5,1.3,1.4,2.5,2.8,3.7s3.3,2.2,5.8,3.1c2.5,1,5.8,1.9,9.8,2.8c4.3,1,8.1,2.1,11.2,3.4
		c3.1,1.2,5.7,2.7,7.8,4.4c2.1,1.7,3.6,3.7,4.6,5.8c1,2.2,1.5,4.7,1.5,7.6c0,3-0.6,5.7-1.9,8.1c-1.2,2.5-3,4.6-5.3,6.3
		c-2.3,1.7-5.1,3.1-8.4,4.1c-3.3,1-6.9,1.5-11,1.5c-4.6,0-8.6-0.6-12.1-1.8c-3.5-1.2-6.4-2.8-8.8-4.7c-2.4-2-4.2-4.3-5.4-6.9
		c-1.2-2.6-1.8-5.3-1.8-8.1h8c0.2,2.8,0.9,5.2,2.2,7.1c1.3,1.9,2.9,3.4,4.8,4.5c1.9,1.1,4,1.9,6.3,2.4c2.3,0.5,4.6,0.7,6.9,0.7
		c3,0,5.7-0.4,8-1.1c2.3-0.7,4.2-1.7,5.8-2.9c1.6-1.2,2.8-2.6,3.6-4.1C282.7,321.6,283.1,320,283.1,318.3z"/>
	<path id="XMLID_4302_" class="st0" d="M328.3,325.2l21-60.4h8.6l-30.4,83.3c-0.6,1.6-1.4,3.5-2.4,5.5c-1,2-2.2,3.9-3.7,5.7
		c-1.5,1.8-3.4,3.3-5.7,4.5c-2.3,1.2-5.1,1.8-8.3,1.8c-0.4,0-1,0-1.5-0.1c-0.6-0.1-1.2-0.1-1.7-0.2c-0.6-0.1-1.1-0.2-1.6-0.3
		c-0.5-0.1-0.9-0.2-1.2-0.3l-0.1-6.6c0.5,0.1,1.2,0.2,2.2,0.3c0.9,0.1,1.6,0.1,2,0.1c2.1,0,4-0.3,5.6-0.8c1.6-0.6,3.1-1.4,4.3-2.5
		c1.2-1.1,2.3-2.4,3.2-4.1c0.9-1.6,1.8-3.5,2.5-5.6l3.5-9.5l-27.1-71.3h8.7L328.3,325.2z"/>
	<path id="XMLID_4304_" class="st0" d="M439.1,347.5h-67.5v-14.6l31.1-32.7c4.1-4.7,7.1-8.7,8.8-12.1c1.8-3.3,2.7-6.3,2.7-8.7
		c0-4.2-0.9-7.3-2.7-9.5c-1.8-2.2-4.4-3.3-7.9-3.3c-1.7,0-3.3,0.4-4.7,1.2c-1.4,0.8-2.6,1.8-3.6,3.2c-1,1.4-1.8,3-2.3,4.8
		c-0.6,1.8-0.8,3.8-0.8,6h-22.4c0-4.4,0.8-8.6,2.5-12.6c1.7-3.9,4-7.4,7-10.4c3-3,6.7-5.3,10.9-7c4.2-1.7,8.9-2.6,14-2.6
		c5.4,0,10.1,0.6,14.1,1.9s7.4,3.1,10.2,5.5c2.7,2.4,4.8,5.3,6.2,8.8c1.4,3.5,2.1,7.4,2.1,11.9c0,3.4-0.5,6.6-1.6,9.7
		c-1.1,3.1-2.6,6.1-4.6,9.2c-2,3.1-4.4,6.2-7.3,9.4c-2.9,3.2-6.1,6.6-9.7,10.2l-12.5,14.4h38.1V347.5z"/>
	<path id="XMLID_4306_" class="st0" d="M515.7,301.4c0,5.4-0.6,10.3-1.8,14.8c-1.2,4.5-3,8.3-5.3,11.5c-2.3,3.2-5.2,5.7-8.6,7.5
		c-3.4,1.8-7.3,2.7-11.6,2.7c-5.1,0-9.6-0.9-13.3-2.8c-3.7-1.8-6.8-4.4-9.3-7.6v36.7h-7.9v-99.5h7.4l0.4,10.2
		c2.4-3.6,5.5-6.4,9.2-8.4c3.7-2,8.1-3.1,13.3-3.1c4.4,0,8.3,0.9,11.7,2.6c3.4,1.7,6.3,4.2,8.7,7.4c2.3,3.2,4.1,7,5.3,11.5
		c1.2,4.5,1.8,9.5,1.8,15.1V301.4z M507.7,300c0-4.2-0.4-8.1-1.3-11.7c-0.9-3.6-2.2-6.8-3.9-9.4c-1.7-2.7-4-4.7-6.7-6.3
		c-2.7-1.5-5.9-2.3-9.5-2.3c-2.9,0-5.4,0.4-7.6,1.1c-2.2,0.8-4.2,1.8-5.8,3c-1.7,1.3-3.1,2.7-4.3,4.4c-1.2,1.7-2.1,3.4-2.9,5.2v34.5
		c0.8,1.8,1.9,3.5,3.2,5c1.3,1.5,2.7,2.9,4.4,4c1.7,1.1,3.6,2,5.8,2.7c2.2,0.6,4.6,1,7.3,1c3.6,0,6.8-0.8,9.4-2.3
		c2.7-1.5,4.9-3.6,6.6-6.3c1.7-2.7,3.1-5.8,3.9-9.5c0.9-3.6,1.3-7.5,1.3-11.8V300z"/>
	<path id="XMLID_4309_" class="st0" d="M575.7,336.6c-0.4-1.2-0.8-2.8-1-4.5c-0.2-1.8-0.4-3.6-0.5-5.5c-1.2,1.5-2.6,3-4.3,4.4
		c-1.6,1.4-3.5,2.6-5.5,3.6c-2,1-4.3,1.8-6.7,2.5c-2.4,0.6-5.1,0.9-7.9,0.9c-3.5,0-6.7-0.5-9.5-1.5s-5.3-2.4-7.3-4.3
		c-2-1.8-3.6-4-4.7-6.5c-1.1-2.5-1.7-5.2-1.7-8.1c0-3.5,0.8-6.7,2.3-9.5c1.5-2.8,3.7-5.2,6.5-7.2c2.8-2,6.3-3.5,10.3-4.5
		c4.1-1,8.6-1.6,13.6-1.6h14.7v-8.2c0-5.1-1.6-9.2-4.7-12.1c-3.2-2.9-7.8-4.4-13.8-4.4c-2.8,0-5.4,0.4-7.7,1.1
		c-2.3,0.8-4.4,1.8-6.1,3.1c-1.7,1.3-3,2.9-4,4.6c-1,1.7-1.4,3.6-1.4,5.6l-8-0.1c0-2.7,0.7-5.3,2-7.8c1.3-2.5,3.2-4.8,5.6-6.7
		c2.4-2,5.3-3.6,8.7-4.7c3.4-1.2,7.1-1.8,11.3-1.8c3.8,0,7.3,0.5,10.5,1.5c3.2,1,6,2.4,8.3,4.4c2.3,1.9,4.1,4.4,5.4,7.3
		c1.3,2.9,1.9,6.3,1.9,10.2v34.8c0,1.2,0,2.5,0.1,3.9c0.1,1.3,0.2,2.6,0.4,3.9c0.2,1.2,0.4,2.4,0.7,3.6c0.3,1.1,0.6,2.1,0.9,3v0.8
		H575.7z M550.7,330.9c2.9,0,5.5-0.4,8-1.1s4.7-1.7,6.7-3c2-1.3,3.7-2.8,5.2-4.5c1.5-1.7,2.6-3.6,3.5-5.5v-15.8h-13.6
		c-4.1,0-7.7,0.4-10.9,1.1c-3.2,0.7-5.9,1.8-8.1,3.2c-2.2,1.4-3.9,3-5.1,5c-1.2,2-1.8,4.2-1.8,6.7c0,1.9,0.4,3.8,1.1,5.5
		c0.8,1.7,1.8,3.2,3.2,4.4c1.4,1.3,3.1,2.3,5.1,3S548.2,330.9,550.7,330.9z"/>
	<path id="XMLID_4312_" class="st0" d="M633.2,271.5c-1.7-0.3-3.5-0.5-5.4-0.5c-2.7,0-5.1,0.4-7.3,1.2c-2.2,0.8-4.1,1.9-5.7,3.4
		c-1.7,1.4-3.1,3.1-4.2,5.1c-1.1,2-2,4.2-2.7,6.5v49.3H600v-71.9h7.8l0.1,11.4c1.9-3.9,4.6-7,7.9-9.3c3.3-2.3,7.4-3.4,12.3-3.4
		c1,0,2,0.1,3,0.3c1,0.2,1.8,0.4,2.3,0.6L633.2,271.5z"/>
	<path id="XMLID_4314_" class="st0" d="M660.9,300.4l-9.1,8.8v27.4h-8v-102h8v65.3l7.5-8.1l27.5-27h10L666.4,295l33.1,41.6H690
		L660.9,300.4z"/>
</g>
</svg>
