<?xml version="1.0" encoding="iso-8859-1"?>
<!-- Generator: Adobe Illustrator 19.0.0, SVG Export Plug-In . SVG Version: 6.00 Build 0)  -->
<svg version="1.1" id="Layer_1" xmlns="http://www.w3.org/2000/svg" xmlns:xlink="http://www.w3.org/1999/xlink" x="0px" y="0px"
	 viewBox="0 0 455 455" style="enable-background:new 0 0 455 455;" xml:space="preserve">
<g>
	<path d="M364.443,201.31c-1.496,4.303-4.103,11.255-3.933,10.954c0,0-9.351,25.48-11.809,32.081h24.603
		c-1.175-5.742-6.86-33.132-6.86-33.132L364.443,201.31z"/>
	<path d="M0,89.331v276.338h455V89.331H0z M101.741,284.947l-23.686-89.602L44.25,170.349l59.733,0l15.403,78.211l28.992-78.208
		h31.407l-46.675,114.596H101.741z M202.88,285.037h-29.638l18.543-114.778h29.636L202.88,285.037z M254.477,286.744
		c-13.302-0.146-26.11-2.921-33.023-6.118l4.145-25.691l3.816,1.827c9.746,4.284,16.051,6.021,27.916,6.021
		c8.524,0,17.662-3.525,17.739-11.212c0.049-5.024-3.831-8.622-15.382-14.243c-11.234-5.479-26.142-14.689-25.962-31.183
		c0.179-22.309,20.806-37.887,50.108-37.887c11.475,0,20.699,2.514,26.558,4.818l-4.008,24.881l-2.663-1.312
		c-5.476-2.331-12.485-4.568-22.186-4.409c-11.608,0-16.972,5.106-16.979,9.874c-0.073,5.39,6.287,8.915,16.643,14.241
		c17.104,8.189,25,18.103,24.896,31.188C305.86,271.354,285.624,286.744,254.477,286.744z M381.743,285.082
		c0,0-2.727-13.197-3.61-17.193c-4.316,0-34.561-0.067-37.958-0.067c-1.152,3.111-6.232,17.261-6.232,17.261h-31.136l44.023-105.193
		c3.106-7.482,8.429-9.514,15.535-9.514h22.901l23.985,114.708H381.743z"/>
</g>
<g>
</g>
<g>
</g>
<g>
</g>
<g>
</g>
<g>
</g>
<g>
</g>
<g>
</g>
<g>
</g>
<g>
</g>
<g>
</g>
<g>
</g>
<g>
</g>
<g>
</g>
<g>
</g>
<g>
</g>
</svg>
